<mxfile host="app.diagrams.net" modified="2021-02-24T05:59:51.080Z" agent="5.0 (Windows NT 10.0; Win64; x64) AppleWebKit/537.36 (KHTML, like Gecko) Chrome/88.0.4324.150 Safari/537.36" etag="1K1wU6nXwxwBaNFtAq0z" version="14.4.2" type="github">
  <diagram id="C5RBs43oDa-KdzZeNtuy" name="Page-1">
    <mxGraphModel dx="1254" dy="1149" grid="1" gridSize="10" guides="1" tooltips="1" connect="1" arrows="1" fold="1" page="1" pageScale="1" pageWidth="827" pageHeight="1169" math="0" shadow="0">
      <root>
        <mxCell id="WIyWlLk6GJQsqaUBKTNV-0" />
        <mxCell id="WIyWlLk6GJQsqaUBKTNV-1" parent="WIyWlLk6GJQsqaUBKTNV-0" />
        <mxCell id="WIyWlLk6GJQsqaUBKTNV-2" value="" style="rounded=0;html=1;jettySize=auto;orthogonalLoop=1;fontSize=11;endArrow=block;endFill=0;endSize=8;strokeWidth=1;shadow=0;labelBackgroundColor=none;edgeStyle=orthogonalEdgeStyle;" parent="WIyWlLk6GJQsqaUBKTNV-1" source="WIyWlLk6GJQsqaUBKTNV-3" target="WIyWlLk6GJQsqaUBKTNV-6" edge="1">
          <mxGeometry relative="1" as="geometry" />
        </mxCell>
        <mxCell id="WIyWlLk6GJQsqaUBKTNV-3" value="スタート" style="rounded=1;whiteSpace=wrap;html=1;fontSize=12;glass=0;strokeWidth=1;shadow=0;" parent="WIyWlLk6GJQsqaUBKTNV-1" vertex="1">
          <mxGeometry x="54" y="40" width="120" height="40" as="geometry" />
        </mxCell>
        <mxCell id="J8ktQcWIBkLLSIjZLY1t-14" value="Yes" style="edgeStyle=orthogonalEdgeStyle;rounded=0;orthogonalLoop=1;jettySize=auto;html=1;entryX=0.5;entryY=0;entryDx=0;entryDy=0;exitX=0.5;exitY=1;exitDx=0;exitDy=0;" edge="1" parent="WIyWlLk6GJQsqaUBKTNV-1" source="WIyWlLk6GJQsqaUBKTNV-6" target="J8ktQcWIBkLLSIjZLY1t-0">
          <mxGeometry relative="1" as="geometry">
            <mxPoint x="24" y="250" as="sourcePoint" />
          </mxGeometry>
        </mxCell>
        <mxCell id="J8ktQcWIBkLLSIjZLY1t-157" value="No" style="edgeStyle=orthogonalEdgeStyle;rounded=0;jumpStyle=arc;jumpSize=15;orthogonalLoop=1;jettySize=auto;html=1;entryX=0;entryY=0.5;entryDx=0;entryDy=0;" edge="1" parent="WIyWlLk6GJQsqaUBKTNV-1" source="WIyWlLk6GJQsqaUBKTNV-6" target="J8ktQcWIBkLLSIjZLY1t-20">
          <mxGeometry x="-0.8384" relative="1" as="geometry">
            <Array as="points">
              <mxPoint x="50" y="135" />
              <mxPoint x="50" y="480" />
            </Array>
            <mxPoint as="offset" />
          </mxGeometry>
        </mxCell>
        <mxCell id="WIyWlLk6GJQsqaUBKTNV-6" value="休日出勤" style="rhombus;whiteSpace=wrap;html=1;shadow=0;fontFamily=Helvetica;fontSize=12;align=center;strokeWidth=1;spacing=6;spacingTop=-4;" parent="WIyWlLk6GJQsqaUBKTNV-1" vertex="1">
          <mxGeometry x="64" y="110" width="100" height="50" as="geometry" />
        </mxCell>
        <mxCell id="WIyWlLk6GJQsqaUBKTNV-11" value="実労働時間" style="rounded=1;whiteSpace=wrap;html=1;fontSize=12;glass=0;strokeWidth=1;shadow=0;" parent="WIyWlLk6GJQsqaUBKTNV-1" vertex="1">
          <mxGeometry x="630" y="460" width="120" height="40" as="geometry" />
        </mxCell>
        <mxCell id="J8ktQcWIBkLLSIjZLY1t-12" value="No" style="edgeStyle=orthogonalEdgeStyle;rounded=0;orthogonalLoop=1;jettySize=auto;html=1;exitX=1;exitY=0.5;exitDx=0;exitDy=0;entryX=0.5;entryY=0;entryDx=0;entryDy=0;" edge="1" parent="WIyWlLk6GJQsqaUBKTNV-1" source="J8ktQcWIBkLLSIjZLY1t-0" target="J8ktQcWIBkLLSIjZLY1t-6">
          <mxGeometry relative="1" as="geometry" />
        </mxCell>
        <mxCell id="J8ktQcWIBkLLSIjZLY1t-122" value="Yes" style="edgeStyle=orthogonalEdgeStyle;rounded=0;orthogonalLoop=1;jettySize=auto;html=1;exitX=0.5;exitY=1;exitDx=0;exitDy=0;entryX=0.5;entryY=0;entryDx=0;entryDy=0;" edge="1" parent="WIyWlLk6GJQsqaUBKTNV-1" source="J8ktQcWIBkLLSIjZLY1t-0" target="J8ktQcWIBkLLSIjZLY1t-11">
          <mxGeometry relative="1" as="geometry" />
        </mxCell>
        <mxCell id="J8ktQcWIBkLLSIjZLY1t-0" value="Flex" style="rhombus;whiteSpace=wrap;html=1;" vertex="1" parent="WIyWlLk6GJQsqaUBKTNV-1">
          <mxGeometry x="74" y="200" width="80" height="50" as="geometry" />
        </mxCell>
        <mxCell id="J8ktQcWIBkLLSIjZLY1t-128" value="Yes" style="edgeStyle=orthogonalEdgeStyle;rounded=0;orthogonalLoop=1;jettySize=auto;html=1;exitX=0.5;exitY=1;exitDx=0;exitDy=0;entryX=0.5;entryY=0;entryDx=0;entryDy=0;jumpSize=6;" edge="1" parent="WIyWlLk6GJQsqaUBKTNV-1" source="J8ktQcWIBkLLSIjZLY1t-6" target="WIyWlLk6GJQsqaUBKTNV-11">
          <mxGeometry relative="1" as="geometry">
            <Array as="points">
              <mxPoint x="690" y="440" />
              <mxPoint x="690" y="440" />
            </Array>
            <mxPoint as="offset" />
          </mxGeometry>
        </mxCell>
        <mxCell id="J8ktQcWIBkLLSIjZLY1t-6" value="7.5H未満" style="rhombus;whiteSpace=wrap;html=1;" vertex="1" parent="WIyWlLk6GJQsqaUBKTNV-1">
          <mxGeometry x="650" y="370" width="80" height="50" as="geometry" />
        </mxCell>
        <mxCell id="J8ktQcWIBkLLSIjZLY1t-8" value="7.5H" style="rounded=1;whiteSpace=wrap;html=1;fontSize=12;glass=0;strokeWidth=1;shadow=0;" vertex="1" parent="WIyWlLk6GJQsqaUBKTNV-1">
          <mxGeometry x="460" y="460" width="120" height="40" as="geometry" />
        </mxCell>
        <mxCell id="J8ktQcWIBkLLSIjZLY1t-16" value="No" style="edgeStyle=orthogonalEdgeStyle;rounded=0;orthogonalLoop=1;jettySize=auto;html=1;" edge="1" parent="WIyWlLk6GJQsqaUBKTNV-1" source="J8ktQcWIBkLLSIjZLY1t-11" target="J8ktQcWIBkLLSIjZLY1t-15">
          <mxGeometry relative="1" as="geometry" />
        </mxCell>
        <mxCell id="J8ktQcWIBkLLSIjZLY1t-22" value="Yes" style="edgeStyle=orthogonalEdgeStyle;rounded=0;orthogonalLoop=1;jettySize=auto;html=1;exitX=0.5;exitY=1;exitDx=0;exitDy=0;entryX=0.5;entryY=0;entryDx=0;entryDy=0;" edge="1" parent="WIyWlLk6GJQsqaUBKTNV-1" source="J8ktQcWIBkLLSIjZLY1t-11" target="J8ktQcWIBkLLSIjZLY1t-20">
          <mxGeometry x="-0.6939" relative="1" as="geometry">
            <Array as="points">
              <mxPoint x="114" y="400" />
              <mxPoint x="180" y="400" />
            </Array>
            <mxPoint as="offset" />
          </mxGeometry>
        </mxCell>
        <mxCell id="J8ktQcWIBkLLSIjZLY1t-11" value="土曜・祝日" style="rhombus;whiteSpace=wrap;html=1;" vertex="1" parent="WIyWlLk6GJQsqaUBKTNV-1">
          <mxGeometry x="74" y="290" width="80" height="50" as="geometry" />
        </mxCell>
        <mxCell id="J8ktQcWIBkLLSIjZLY1t-24" value="Yes" style="edgeStyle=orthogonalEdgeStyle;rounded=0;orthogonalLoop=1;jettySize=auto;html=1;entryX=0.5;entryY=0;entryDx=0;entryDy=0;" edge="1" parent="WIyWlLk6GJQsqaUBKTNV-1" source="J8ktQcWIBkLLSIjZLY1t-15" target="J8ktQcWIBkLLSIjZLY1t-20">
          <mxGeometry relative="1" as="geometry">
            <mxPoint x="304" y="550" as="targetPoint" />
          </mxGeometry>
        </mxCell>
        <mxCell id="J8ktQcWIBkLLSIjZLY1t-27" value="No" style="edgeStyle=orthogonalEdgeStyle;rounded=0;orthogonalLoop=1;jettySize=auto;html=1;" edge="1" parent="WIyWlLk6GJQsqaUBKTNV-1" source="J8ktQcWIBkLLSIjZLY1t-15" target="J8ktQcWIBkLLSIjZLY1t-17">
          <mxGeometry relative="1" as="geometry" />
        </mxCell>
        <mxCell id="J8ktQcWIBkLLSIjZLY1t-15" value="3.75H未満" style="rhombus;whiteSpace=wrap;html=1;" vertex="1" parent="WIyWlLk6GJQsqaUBKTNV-1">
          <mxGeometry x="204" y="370" width="80" height="50" as="geometry" />
        </mxCell>
        <mxCell id="J8ktQcWIBkLLSIjZLY1t-30" value="No" style="edgeStyle=orthogonalEdgeStyle;rounded=0;orthogonalLoop=1;jettySize=auto;html=1;entryX=0.5;entryY=0;entryDx=0;entryDy=0;exitX=1;exitY=0.5;exitDx=0;exitDy=0;" edge="1" parent="WIyWlLk6GJQsqaUBKTNV-1" source="J8ktQcWIBkLLSIjZLY1t-17" target="J8ktQcWIBkLLSIjZLY1t-8">
          <mxGeometry x="-0.8049" relative="1" as="geometry">
            <mxPoint x="474" y="305" as="targetPoint" />
            <Array as="points">
              <mxPoint x="520" y="396" />
            </Array>
            <mxPoint as="offset" />
          </mxGeometry>
        </mxCell>
        <mxCell id="J8ktQcWIBkLLSIjZLY1t-129" value="Yes" style="edgeStyle=orthogonalEdgeStyle;rounded=0;orthogonalLoop=1;jettySize=auto;html=1;exitX=0.5;exitY=1;exitDx=0;exitDy=0;entryX=0.5;entryY=0;entryDx=0;entryDy=0;" edge="1" parent="WIyWlLk6GJQsqaUBKTNV-1" source="J8ktQcWIBkLLSIjZLY1t-17" target="J8ktQcWIBkLLSIjZLY1t-29">
          <mxGeometry relative="1" as="geometry" />
        </mxCell>
        <mxCell id="J8ktQcWIBkLLSIjZLY1t-17" value="7.5H未満" style="rhombus;whiteSpace=wrap;html=1;" vertex="1" parent="WIyWlLk6GJQsqaUBKTNV-1">
          <mxGeometry x="324" y="370" width="88" height="51" as="geometry" />
        </mxCell>
        <mxCell id="J8ktQcWIBkLLSIjZLY1t-20" value="0H" style="rounded=1;whiteSpace=wrap;html=1;fontSize=12;glass=0;strokeWidth=1;shadow=0;" vertex="1" parent="WIyWlLk6GJQsqaUBKTNV-1">
          <mxGeometry x="120" y="460" width="120" height="40" as="geometry" />
        </mxCell>
        <mxCell id="J8ktQcWIBkLLSIjZLY1t-29" value="3.75H" style="rounded=1;whiteSpace=wrap;html=1;fontSize=12;glass=0;strokeWidth=1;shadow=0;" vertex="1" parent="WIyWlLk6GJQsqaUBKTNV-1">
          <mxGeometry x="307.5" y="460" width="121" height="40" as="geometry" />
        </mxCell>
        <mxCell id="J8ktQcWIBkLLSIjZLY1t-33" value="ASIS" style="text;html=1;align=center;verticalAlign=middle;resizable=0;points=[];autosize=1;" vertex="1" parent="WIyWlLk6GJQsqaUBKTNV-1">
          <mxGeometry x="54" y="10" width="40" height="20" as="geometry" />
        </mxCell>
        <mxCell id="J8ktQcWIBkLLSIjZLY1t-108" value="TOBE" style="text;html=1;align=center;verticalAlign=middle;resizable=0;points=[];autosize=1;" vertex="1" parent="WIyWlLk6GJQsqaUBKTNV-1">
          <mxGeometry x="159" y="550" width="50" height="20" as="geometry" />
        </mxCell>
        <mxCell id="J8ktQcWIBkLLSIjZLY1t-123" value="No" style="edgeStyle=orthogonalEdgeStyle;rounded=0;orthogonalLoop=1;jettySize=auto;html=1;entryX=0.5;entryY=0;entryDx=0;entryDy=0;jumpStyle=arc;jumpSize=15;exitX=0;exitY=0.5;exitDx=0;exitDy=0;" edge="1" parent="WIyWlLk6GJQsqaUBKTNV-1" source="J8ktQcWIBkLLSIjZLY1t-6" target="J8ktQcWIBkLLSIjZLY1t-8">
          <mxGeometry x="-0.68" relative="1" as="geometry">
            <mxPoint x="590" y="400" as="sourcePoint" />
            <mxPoint x="384" y="210" as="targetPoint" />
            <Array as="points">
              <mxPoint x="520" y="395" />
            </Array>
            <mxPoint as="offset" />
          </mxGeometry>
        </mxCell>
        <mxCell id="J8ktQcWIBkLLSIjZLY1t-132" value="" style="rounded=0;html=1;jettySize=auto;orthogonalLoop=1;fontSize=11;endArrow=block;endFill=0;endSize=8;strokeWidth=1;shadow=0;labelBackgroundColor=none;edgeStyle=orthogonalEdgeStyle;" edge="1" parent="WIyWlLk6GJQsqaUBKTNV-1" source="J8ktQcWIBkLLSIjZLY1t-133" target="J8ktQcWIBkLLSIjZLY1t-136">
          <mxGeometry relative="1" as="geometry" />
        </mxCell>
        <mxCell id="J8ktQcWIBkLLSIjZLY1t-133" value="スタート" style="rounded=1;whiteSpace=wrap;html=1;fontSize=12;glass=0;strokeWidth=1;shadow=0;" vertex="1" parent="WIyWlLk6GJQsqaUBKTNV-1">
          <mxGeometry x="159" y="575" width="120" height="40" as="geometry" />
        </mxCell>
        <mxCell id="J8ktQcWIBkLLSIjZLY1t-134" value="Yes" style="edgeStyle=orthogonalEdgeStyle;rounded=0;orthogonalLoop=1;jettySize=auto;html=1;entryX=0.5;entryY=0;entryDx=0;entryDy=0;exitX=0.5;exitY=1;exitDx=0;exitDy=0;" edge="1" parent="WIyWlLk6GJQsqaUBKTNV-1" source="J8ktQcWIBkLLSIjZLY1t-136" target="J8ktQcWIBkLLSIjZLY1t-140">
          <mxGeometry relative="1" as="geometry">
            <mxPoint x="129" y="785" as="sourcePoint" />
          </mxGeometry>
        </mxCell>
        <mxCell id="J8ktQcWIBkLLSIjZLY1t-135" value="No" style="edgeStyle=orthogonalEdgeStyle;rounded=0;orthogonalLoop=1;jettySize=auto;html=1;exitX=0;exitY=0.5;exitDx=0;exitDy=0;entryX=0;entryY=0.5;entryDx=0;entryDy=0;" edge="1" parent="WIyWlLk6GJQsqaUBKTNV-1" source="J8ktQcWIBkLLSIjZLY1t-136" target="J8ktQcWIBkLLSIjZLY1t-153">
          <mxGeometry x="-0.9238" relative="1" as="geometry">
            <Array as="points">
              <mxPoint x="119" y="670" />
              <mxPoint x="119" y="1105" />
            </Array>
            <mxPoint as="offset" />
          </mxGeometry>
        </mxCell>
        <mxCell id="J8ktQcWIBkLLSIjZLY1t-136" value="休日出勤" style="rhombus;whiteSpace=wrap;html=1;shadow=0;fontFamily=Helvetica;fontSize=12;align=center;strokeWidth=1;spacing=6;spacingTop=-4;" vertex="1" parent="WIyWlLk6GJQsqaUBKTNV-1">
          <mxGeometry x="169" y="645" width="100" height="50" as="geometry" />
        </mxCell>
        <mxCell id="J8ktQcWIBkLLSIjZLY1t-137" value="実労働時間" style="rounded=1;whiteSpace=wrap;html=1;fontSize=12;glass=0;strokeWidth=1;shadow=0;" vertex="1" parent="WIyWlLk6GJQsqaUBKTNV-1">
          <mxGeometry x="349" y="1085" width="120" height="40" as="geometry" />
        </mxCell>
        <mxCell id="J8ktQcWIBkLLSIjZLY1t-138" value="No" style="edgeStyle=orthogonalEdgeStyle;rounded=0;orthogonalLoop=1;jettySize=auto;html=1;exitX=1;exitY=0.5;exitDx=0;exitDy=0;entryX=0.5;entryY=0;entryDx=0;entryDy=0;" edge="1" parent="WIyWlLk6GJQsqaUBKTNV-1" source="J8ktQcWIBkLLSIjZLY1t-140" target="J8ktQcWIBkLLSIjZLY1t-142">
          <mxGeometry x="-0.9238" relative="1" as="geometry">
            <Array as="points">
              <mxPoint x="669" y="760" />
            </Array>
            <mxPoint as="offset" />
          </mxGeometry>
        </mxCell>
        <mxCell id="J8ktQcWIBkLLSIjZLY1t-139" value="Yes" style="edgeStyle=orthogonalEdgeStyle;rounded=0;orthogonalLoop=1;jettySize=auto;html=1;exitX=0.5;exitY=1;exitDx=0;exitDy=0;entryX=0.5;entryY=0;entryDx=0;entryDy=0;" edge="1" parent="WIyWlLk6GJQsqaUBKTNV-1" source="J8ktQcWIBkLLSIjZLY1t-140" target="J8ktQcWIBkLLSIjZLY1t-146">
          <mxGeometry relative="1" as="geometry" />
        </mxCell>
        <mxCell id="J8ktQcWIBkLLSIjZLY1t-140" value="Flex" style="rhombus;whiteSpace=wrap;html=1;" vertex="1" parent="WIyWlLk6GJQsqaUBKTNV-1">
          <mxGeometry x="179" y="735" width="80" height="50" as="geometry" />
        </mxCell>
        <mxCell id="J8ktQcWIBkLLSIjZLY1t-141" value="Yes" style="edgeStyle=orthogonalEdgeStyle;rounded=0;orthogonalLoop=1;jettySize=auto;html=1;exitX=0.5;exitY=1;exitDx=0;exitDy=0;entryX=0.5;entryY=1;entryDx=0;entryDy=0;jumpSize=6;" edge="1" parent="WIyWlLk6GJQsqaUBKTNV-1" source="J8ktQcWIBkLLSIjZLY1t-142" target="J8ktQcWIBkLLSIjZLY1t-137">
          <mxGeometry x="-0.8209" relative="1" as="geometry">
            <Array as="points">
              <mxPoint x="669" y="1145" />
              <mxPoint x="409" y="1145" />
            </Array>
            <mxPoint as="offset" />
          </mxGeometry>
        </mxCell>
        <mxCell id="J8ktQcWIBkLLSIjZLY1t-164" value="No" style="edgeStyle=orthogonalEdgeStyle;rounded=0;jumpStyle=arc;jumpSize=15;orthogonalLoop=1;jettySize=auto;html=1;exitX=0;exitY=0.5;exitDx=0;exitDy=0;" edge="1" parent="WIyWlLk6GJQsqaUBKTNV-1" source="J8ktQcWIBkLLSIjZLY1t-142">
          <mxGeometry x="-0.8367" relative="1" as="geometry">
            <mxPoint x="569" y="1085" as="targetPoint" />
            <mxPoint as="offset" />
          </mxGeometry>
        </mxCell>
        <mxCell id="J8ktQcWIBkLLSIjZLY1t-142" value="7.5H未満" style="rhombus;whiteSpace=wrap;html=1;" vertex="1" parent="WIyWlLk6GJQsqaUBKTNV-1">
          <mxGeometry x="629" y="875" width="80" height="50" as="geometry" />
        </mxCell>
        <mxCell id="J8ktQcWIBkLLSIjZLY1t-143" value="7.5H" style="rounded=1;whiteSpace=wrap;html=1;fontSize=12;glass=0;strokeWidth=1;shadow=0;" vertex="1" parent="WIyWlLk6GJQsqaUBKTNV-1">
          <mxGeometry x="507.5" y="1085" width="120" height="40" as="geometry" />
        </mxCell>
        <mxCell id="J8ktQcWIBkLLSIjZLY1t-144" value="No" style="edgeStyle=orthogonalEdgeStyle;rounded=0;orthogonalLoop=1;jettySize=auto;html=1;" edge="1" parent="WIyWlLk6GJQsqaUBKTNV-1" source="J8ktQcWIBkLLSIjZLY1t-146" target="J8ktQcWIBkLLSIjZLY1t-149">
          <mxGeometry relative="1" as="geometry" />
        </mxCell>
        <mxCell id="J8ktQcWIBkLLSIjZLY1t-145" value="Yes" style="edgeStyle=orthogonalEdgeStyle;rounded=0;orthogonalLoop=1;jettySize=auto;html=1;exitX=0.5;exitY=1;exitDx=0;exitDy=0;entryX=0.5;entryY=0;entryDx=0;entryDy=0;" edge="1" parent="WIyWlLk6GJQsqaUBKTNV-1" source="J8ktQcWIBkLLSIjZLY1t-146" target="J8ktQcWIBkLLSIjZLY1t-153">
          <mxGeometry relative="1" as="geometry" />
        </mxCell>
        <mxCell id="J8ktQcWIBkLLSIjZLY1t-146" value="土曜・祝日" style="rhombus;whiteSpace=wrap;html=1;" vertex="1" parent="WIyWlLk6GJQsqaUBKTNV-1">
          <mxGeometry x="179" y="815" width="80" height="50" as="geometry" />
        </mxCell>
        <mxCell id="J8ktQcWIBkLLSIjZLY1t-147" value="Yes" style="edgeStyle=orthogonalEdgeStyle;rounded=0;orthogonalLoop=1;jettySize=auto;html=1;entryX=0.5;entryY=0;entryDx=0;entryDy=0;" edge="1" parent="WIyWlLk6GJQsqaUBKTNV-1" source="J8ktQcWIBkLLSIjZLY1t-149" target="J8ktQcWIBkLLSIjZLY1t-137">
          <mxGeometry x="-0.8909" relative="1" as="geometry">
            <mxPoint x="409" y="1085" as="targetPoint" />
            <Array as="points">
              <mxPoint x="349" y="1015" />
              <mxPoint x="409" y="1015" />
            </Array>
            <mxPoint as="offset" />
          </mxGeometry>
        </mxCell>
        <mxCell id="J8ktQcWIBkLLSIjZLY1t-148" value="No" style="edgeStyle=orthogonalEdgeStyle;rounded=0;orthogonalLoop=1;jettySize=auto;html=1;" edge="1" parent="WIyWlLk6GJQsqaUBKTNV-1" source="J8ktQcWIBkLLSIjZLY1t-149" target="J8ktQcWIBkLLSIjZLY1t-152">
          <mxGeometry relative="1" as="geometry" />
        </mxCell>
        <mxCell id="J8ktQcWIBkLLSIjZLY1t-149" value="3.75H未満" style="rhombus;whiteSpace=wrap;html=1;" vertex="1" parent="WIyWlLk6GJQsqaUBKTNV-1">
          <mxGeometry x="309" y="875" width="80" height="50" as="geometry" />
        </mxCell>
        <mxCell id="J8ktQcWIBkLLSIjZLY1t-151" value="Yes" style="edgeStyle=orthogonalEdgeStyle;rounded=0;orthogonalLoop=1;jettySize=auto;html=1;exitX=0.5;exitY=1;exitDx=0;exitDy=0;entryX=0.5;entryY=0;entryDx=0;entryDy=0;" edge="1" parent="WIyWlLk6GJQsqaUBKTNV-1" source="J8ktQcWIBkLLSIjZLY1t-152" target="J8ktQcWIBkLLSIjZLY1t-137">
          <mxGeometry x="-0.8571" relative="1" as="geometry">
            <mxPoint x="479" y="925" as="targetPoint" />
            <Array as="points">
              <mxPoint x="479" y="1015" />
              <mxPoint x="409" y="1015" />
            </Array>
            <mxPoint as="offset" />
          </mxGeometry>
        </mxCell>
        <mxCell id="J8ktQcWIBkLLSIjZLY1t-163" value="No" style="edgeStyle=orthogonalEdgeStyle;rounded=0;jumpStyle=arc;jumpSize=15;orthogonalLoop=1;jettySize=auto;html=1;exitX=1;exitY=0.5;exitDx=0;exitDy=0;entryX=0.5;entryY=0;entryDx=0;entryDy=0;" edge="1" parent="WIyWlLk6GJQsqaUBKTNV-1" source="J8ktQcWIBkLLSIjZLY1t-152" target="J8ktQcWIBkLLSIjZLY1t-143">
          <mxGeometry x="-0.8287" relative="1" as="geometry">
            <mxPoint as="offset" />
          </mxGeometry>
        </mxCell>
        <mxCell id="J8ktQcWIBkLLSIjZLY1t-152" value="7.5H未満" style="rhombus;whiteSpace=wrap;html=1;" vertex="1" parent="WIyWlLk6GJQsqaUBKTNV-1">
          <mxGeometry x="439" y="875" width="80" height="50" as="geometry" />
        </mxCell>
        <mxCell id="J8ktQcWIBkLLSIjZLY1t-153" value="0H" style="rounded=1;whiteSpace=wrap;html=1;fontSize=12;glass=0;strokeWidth=1;shadow=0;" vertex="1" parent="WIyWlLk6GJQsqaUBKTNV-1">
          <mxGeometry x="159" y="1085" width="120" height="40" as="geometry" />
        </mxCell>
      </root>
    </mxGraphModel>
  </diagram>
</mxfile>
